<?xml version="1.0" standalone="no"?>
<!DOCTYPE svg PUBLIC "-//W3C//DTD SVG 20010904//EN"
 "http://www.w3.org/TR/2001/REC-SVG-20010904/DTD/svg10.dtd">
<svg version="1.0" xmlns="http://www.w3.org/2000/svg"
 width="24.000000pt" height="24.000000pt" viewBox="0 0 24.000000 24.000000"
 preserveAspectRatio="xMidYMid meet">

<g transform="translate(0.000000,24.000000) scale(0.100000,-0.100000)"
fill="blue" stroke="none">
<path d="M50 182 c0 -4 16 -23 35 -42 l35 -34 37 37 c44 43 37 64 -7 22 l-30
-29 -28 27 c-29 27 -42 33 -42 19z"/>
<path d="M50 122 c0 -4 16 -23 35 -42 l35 -34 37 37 c44 43 37 64 -7 22 l-30
-29 -28 27 c-29 27 -42 33 -42 19z"/>
</g>
</svg>
