<?xml version="1.0" standalone="no"?>
<!DOCTYPE svg PUBLIC "-//W3C//DTD SVG 20010904//EN"
 "http://www.w3.org/TR/2001/REC-SVG-20010904/DTD/svg10.dtd">
<svg version="1.0" xmlns="http://www.w3.org/2000/svg"
 width="50.000000pt" height="50.000000pt" viewBox="0 0 50.000000 50.000000"
 preserveAspectRatio="xMidYMid meet">
<metadata>
Created by potrace 1.16, written by Peter Selinger 2001-2019
</metadata>
<g transform="translate(0.000000,50.000000) scale(0.100000,-0.100000)"
fill="#ff8724fc" stroke="none">
<path d="M225 470 c-3 -5 -19 -10 -35 -10 -20 0 -31 -6 -35 -19 -3 -11 -15
-23 -26 -26 -12 -4 -19 -15 -19 -31 0 -13 -6 -33 -12 -44 -10 -16 -10 -24 0
-40 6 -11 12 -31 12 -44 0 -16 7 -27 19 -31 11 -3 23 -15 26 -26 4 -12 15 -19
31 -19 13 0 33 -6 44 -12 16 -10 24 -10 40 0 11 6 31 12 44 12 16 0 27 7 31
19 3 11 15 23 26 26 12 4 19 15 19 31 0 13 6 33 12 44 10 16 10 24 0 40 -6 11
-12 31 -12 44 0 16 -7 27 -19 31 -11 3 -23 15 -26 26 -4 13 -15 19 -35 19 -16
0 -32 5 -35 10 -3 6 -15 10 -25 10 -10 0 -22 -4 -25 -10z m96 -79 c64 -65 20
-171 -71 -171 -91 0 -135 106 -71 171 23 23 38 29 71 29 33 0 48 -6 71 -29z"/>
<path d="M185 385 c-35 -34 -35 -96 0 -130 18 -19 35 -25 65 -25 56 0 90 34
90 90 0 56 -34 90 -90 90 -30 0 -47 -6 -65 -25z"/>
<path d="M160 95 c0 -83 5 -88 60 -60 27 14 33 14 60 0 55 -28 60 -23 60 60 0
73 -1 75 -25 75 -14 0 -34 -6 -45 -12 -16 -10 -24 -10 -40 0 -11 6 -31 12 -45
12 -24 0 -25 -2 -25 -75z"/>
</g>
</svg>
