<?xml version="1.0" standalone="no"?>
<!DOCTYPE svg PUBLIC "-//W3C//DTD SVG 20010904//EN"
 "http://www.w3.org/TR/2001/REC-SVG-20010904/DTD/svg10.dtd">
<svg version="1.0" xmlns="http://www.w3.org/2000/svg"
 width="48.000000pt" height="48.000000pt" viewBox="0 0 48.000000 48.000000"
 preserveAspectRatio="xMidYMid meet">
<metadata>
Created by potrace 1.16, written by Peter Selinger 2001-2019
</metadata>
<g transform="translate(0.000000,48.000000) scale(0.100000,-0.100000)"
fill="#000000" stroke="none">
<path d="M118 367 c-41 -33 -68 -102 -68 -173 0 -75 24 -104 86 -104 54 0 84
31 84 86 0 53 -31 84 -83 84 -20 0 -37 3 -37 8 0 14 37 63 59 78 11 8 21 22
21 30 0 21 -31 17 -62 -9z"/>
<path d="M328 367 c-41 -33 -68 -102 -68 -173 0 -75 24 -104 86 -104 54 0 84
31 84 86 0 53 -31 84 -83 84 -20 0 -37 3 -37 8 0 14 37 63 59 78 11 8 21 22
21 30 0 21 -31 17 -62 -9z"/>
</g>
</svg>
